<?xml version="1.0" standalone="no"?>
<!DOCTYPE svg PUBLIC "-//W3C//DTD SVG 20010904//EN"
 "http://www.w3.org/TR/2001/REC-SVG-20010904/DTD/svg10.dtd">
<svg version="1.0" xmlns="http://www.w3.org/2000/svg"
 width="554.000000pt" height="554.000000pt" viewBox="0 0 554.000000 554.000000"
 preserveAspectRatio="xMidYMid meet">
<metadata>
Created by potrace 1.14, written by Peter Selinger 2001-2017
</metadata>
<g transform="translate(0.000000,554.000000) scale(0.100000,-0.100000)"
fill="#000000" stroke="none">
<path d="M2482 5520 c-21 -9 -50 -32 -66 -51 -43 -50 -88 -158 -101 -239 -3
-19 -10 -57 -15 -85 -5 -27 -12 -68 -15 -90 -7 -51 -12 -76 -35 -205 -20 -109
-21 -113 -40 -195 -6 -27 -13 -58 -15 -68 -2 -10 -7 -27 -10 -37 -3 -10 -8
-27 -10 -37 -2 -10 -15 -52 -30 -93 -14 -41 -27 -79 -29 -85 -23 -70 -80 -183
-134 -265 -37 -56 -213 -240 -229 -240 -6 0 -23 -11 -39 -25 -50 -43 -300
-161 -404 -190 -26 -7 -164 -46 -183 -50 -128 -34 -407 -85 -609 -110 -95 -12
-199 -31 -228 -42 -8 -3 -23 -8 -34 -10 -49 -9 -128 -69 -153 -116 -59 -115
39 -247 282 -377 44 -23 109 -58 145 -78 54 -28 262 -150 334 -195 109 -67
249 -181 338 -273 147 -153 243 -349 273 -557 3 -27 9 -59 11 -70 7 -32 6
-291 0 -367 -12 -133 -24 -236 -32 -274 -4 -19 -7 -38 -19 -121 -3 -16 -7 -41
-10 -55 -3 -14 -8 -38 -10 -55 -3 -16 -17 -83 -30 -147 -34 -161 -40 -210 -38
-304 1 -102 25 -161 76 -193 50 -31 81 -34 144 -16 93 27 153 68 283 192 82
78 97 92 221 205 188 171 360 298 506 372 59 30 117 57 133 61 3 0 21 6 40 13
111 37 320 56 425 38 17 -3 46 -8 65 -11 29 -4 68 -12 103 -21 4 -1 8 -2 10
-3 1 -2 12 -4 24 -7 45 -8 211 -68 319 -115 139 -60 338 -163 511 -262 208
-120 276 -151 353 -163 68 -11 91 -7 138 23 65 42 89 109 70 198 -5 22 -11 54
-14 70 -3 17 -11 36 -16 42 -6 7 -8 13 -5 13 7 0 -15 54 -69 165 -21 44 -39
82 -39 85 0 3 -16 37 -34 75 -70 149 -179 424 -196 495 -2 8 -13 53 -24 100
-43 182 -46 363 -7 515 50 199 168 401 366 630 52 61 366 372 440 437 200 175
274 272 279 365 4 74 -57 153 -131 169 -13 3 -34 8 -48 11 -52 14 -258 8 -390
-11 -56 -8 -194 -21 -320 -31 -66 -5 -322 -6 -365 -1 -16 2 -55 6 -85 10 -59
7 -69 8 -143 25 -284 65 -509 235 -718 541 -24 36 -46 67 -49 70 -3 3 -16 25
-29 50 -14 25 -27 47 -30 50 -7 6 -15 20 -90 161 -52 100 -105 211 -223 469
-47 105 -52 114 -68 136 -8 12 -22 32 -30 44 -42 63 -118 117 -172 123 -22 2
-53 -3 -76 -13z m207 -1365 c29 -52 126 -193 140 -205 3 -3 19 -23 36 -44 47
-64 194 -206 280 -272 85 -64 255 -169 255 -156 0 4 4 2 8 -4 15 -23 272 -115
357 -128 17 -2 30 -5 30 -6 0 -12 213 -34 347 -34 60 -1 108 -3 108 -6 0 -3
-8 -13 -17 -22 -23 -21 -50 -52 -98 -113 -22 -27 -43 -51 -47 -53 -5 -2 -8
-10 -8 -17 0 -7 -3 -15 -8 -17 -8 -3 -74 -101 -110 -163 -85 -148 -160 -352
-187 -510 -18 -106 -25 -345 -12 -445 14 -114 52 -281 90 -387 8 -24 11 -43 7
-43 -7 0 -45 16 -135 55 -26 11 -69 26 -85 30 -3 1 -25 7 -50 15 -56 17 -59
18 -88 24 -13 3 -31 8 -40 10 -9 3 -33 8 -52 10 -19 3 -50 7 -68 10 -149 27
-369 21 -532 -14 -25 -5 -56 -12 -70 -14 -35 -6 -203 -68 -275 -102 -61 -28
-256 -141 -265 -154 -3 -3 -27 -21 -53 -39 l-48 -33 6 69 c7 81 8 314 0 363
-2 19 -7 57 -10 84 -20 172 -112 429 -208 579 -20 32 -37 61 -37 66 0 5 -3 11
-7 13 -5 2 -28 30 -53 63 -68 90 -213 231 -329 318 -56 43 -109 81 -117 84
-27 10 -13 18 69 37 45 11 111 30 147 43 36 13 65 22 65 22 0 -1 17 6 39 15
21 9 40 16 43 16 10 0 178 85 181 92 2 5 8 8 13 8 14 0 176 109 223 150 130
113 224 220 309 350 57 89 151 276 163 326 4 16 10 34 15 39 4 6 8 13 8 18 1
10 36 127 38 127 0 0 15 -25 32 -55z"/>
<path d="M3874 4960 c-84 -19 -160 -60 -217 -114 -54 -52 -97 -110 -97 -130 0
-9 -3 -16 -8 -16 -15 0 -44 -128 -44 -196 -1 -135 38 -238 127 -332 210 -225
573 -197 744 57 94 140 110 294 46 453 -86 214 -320 333 -551 278z"/>
<path d="M1359 4806 c-2 -3 -16 -7 -29 -9 -28 -4 -57 -14 -82 -28 -10 -5 -25
-9 -33 -9 -8 0 -15 -4 -15 -8 0 -5 -11 -14 -25 -20 -39 -18 -101 -79 -139
-137 -67 -99 -93 -223 -73 -340 9 -58 48 -165 59 -165 5 0 8 -6 8 -14 0 -18
110 -127 146 -146 16 -8 36 -19 44 -26 15 -11 65 -29 111 -40 51 -12 166 -10
219 4 152 38 271 146 333 299 36 92 39 209 7 308 -7 22 -17 46 -23 53 -5 6 -6
12 -3 12 14 0 -58 96 -105 141 -89 84 -203 129 -329 129 -37 0 -69 -2 -71 -4z"/>
<path d="M4867 2614 c-1 -1 -15 -4 -32 -7 -77 -14 -175 -68 -238 -133 -32 -32
-99 -133 -103 -154 0 -3 -4 -12 -7 -20 -31 -72 -30 -236 2 -318 53 -140 162
-247 301 -297 61 -22 196 -27 261 -10 80 21 154 62 214 117 104 95 155 216
150 355 -3 93 -6 110 -18 131 -5 6 -6 12 -3 12 3 0 -10 30 -29 68 -71 136
-189 226 -334 252 -52 9 -155 12 -164 4z"/>
<path d="M695 2295 c-114 -40 -168 -78 -234 -164 -117 -150 -132 -349 -40
-521 28 -52 122 -160 140 -160 4 0 14 -6 21 -13 15 -14 98 -51 143 -62 55 -14
176 -13 233 2 84 22 150 60 217 128 98 97 139 199 139 340 1 217 -145 403
-361 459 -76 20 -187 16 -258 -9z"/>
<path d="M2915 961 c-82 -20 -124 -40 -185 -90 -95 -76 -152 -170 -175 -286
-6 -30 -7 -137 -2 -165 27 -136 102 -250 216 -325 51 -33 115 -57 191 -70 148
-26 321 36 420 151 85 99 124 197 123 318 0 148 -44 249 -154 359 -21 20 -41
37 -45 37 -3 0 -18 9 -33 19 -80 57 -240 80 -356 52z"/>
</g>
</svg>
