<?xml version="1.0" standalone="no"?>
<!DOCTYPE svg PUBLIC "-//W3C//DTD SVG 20010904//EN"
 "http://www.w3.org/TR/2001/REC-SVG-20010904/DTD/svg10.dtd">
<svg version="1.0" xmlns="http://www.w3.org/2000/svg"
 width="554.000000pt" height="554.000000pt" viewBox="0 0 554.000000 554.000000"
 preserveAspectRatio="xMidYMid meet">
<metadata>
Created by potrace 1.11, written by Peter Selinger 2001-2013
</metadata>
<g transform="translate(0.000000,554.000000) scale(0.100000,-0.100000)"
fill="#000000" stroke="none">
<path d="M2496 5525 c-21 -8 -51 -26 -67 -41 -45 -43 -104 -177 -115 -256 -2
-18 -8 -55 -13 -83 -6 -27 -13 -68 -16 -90 -9 -63 -14 -94 -30 -175 -8 -41
-17 -88 -20 -105 -6 -36 -10 -55 -25 -120 -6 -27 -14 -60 -16 -72 -2 -12 -8
-33 -13 -45 -5 -13 -9 -25 -9 -28 0 -33 -88 -263 -126 -330 -14 -25 -29 -52
-33 -60 -27 -59 -125 -172 -210 -243 -105 -88 -115 -95 -228 -152 -134 -66
-266 -114 -445 -160 -44 -11 -200 -45 -230 -50 -19 -3 -46 -7 -60 -10 -14 -3
-41 -7 -60 -10 -19 -3 -42 -8 -50 -10 -8 -2 -40 -7 -70 -10 -30 -3 -66 -8 -80
-11 -14 -2 -38 -6 -55 -8 -83 -11 -133 -19 -165 -26 -19 -5 -46 -11 -60 -13
-14 -3 -50 -16 -80 -30 -156 -72 -176 -204 -50 -327 61 -60 109 -93 215 -150
44 -23 114 -61 155 -83 291 -156 529 -322 665 -465 56 -59 135 -163 135 -179
0 -6 3 -13 8 -15 14 -6 81 -161 96 -223 2 -5 6 -21 9 -35 10 -39 24 -114 32
-180 6 -45 6 -290 1 -355 -7 -87 -17 -179 -21 -205 -2 -14 -7 -45 -10 -70 -3
-25 -8 -53 -12 -64 -3 -10 -7 -35 -9 -55 -1 -20 -6 -47 -9 -61 -3 -14 -8 -41
-11 -60 -3 -19 -12 -62 -19 -95 -8 -33 -16 -77 -19 -99 -4 -21 -8 -42 -11 -46
-22 -35 -24 -256 -3 -320 20 -60 88 -109 146 -105 93 6 195 61 296 158 22 21
89 84 149 140 61 56 118 109 126 117 14 13 203 172 238 200 7 6 17 10 23 10 5
0 10 4 10 8 0 5 30 28 68 52 237 153 411 212 627 211 61 0 121 -3 135 -6 13
-2 42 -7 65 -11 215 -31 568 -180 963 -408 227 -130 279 -153 390 -167 45 -7
142 40 142 68 0 7 4 13 9 13 17 0 29 85 19 136 -18 98 -21 109 -28 119 -4 6
-10 22 -14 37 -3 15 -27 72 -53 125 -26 54 -48 100 -48 103 -1 3 -14 32 -29
65 -236 500 -303 829 -232 1123 20 81 70 199 128 302 29 52 71 115 79 118 5 2
9 8 9 14 0 37 398 462 590 630 130 113 240 232 240 257 0 6 4 11 9 11 10 0 31
77 31 116 0 62 -62 130 -135 149 -16 5 -37 10 -45 13 -39 12 -266 5 -390 -12
-68 -9 -205 -22 -332 -31 -67 -5 -313 -5 -353 -1 -176 20 -168 19 -281 51
-242 70 -435 211 -607 445 -80 109 -92 125 -92 130 -1 5 -57 95 -72 116 -23
30 -206 388 -241 471 -12 29 -43 96 -67 148 -25 52 -45 100 -45 105 0 6 -4 10
-10 10 -5 0 -9 4 -7 8 5 17 -89 131 -132 160 -55 37 -95 44 -145 27z m172
-1322 c-3 -9 44 -91 81 -143 205 -287 395 -457 661 -590 59 -30 173 -76 210
-86 185 -48 197 -51 241 -58 84 -12 172 -19 276 -20 123 -1 123 -1 66 -61 -23
-24 -59 -68 -131 -160 -59 -76 -207 -344 -217 -392 -2 -10 -12 -41 -23 -69
-11 -27 -23 -63 -26 -80 -3 -16 -10 -49 -17 -74 -6 -25 -13 -56 -14 -70 -2
-14 -7 -47 -11 -75 -4 -27 -7 -108 -7 -180 0 -143 7 -222 29 -325 3 -14 7 -36
10 -50 8 -38 40 -150 57 -197 8 -24 11 -43 7 -43 -4 0 -32 11 -61 24 -64 28
-234 86 -269 92 -14 3 -38 9 -55 14 -16 5 -46 12 -65 14 -19 3 -50 7 -68 10
-160 29 -388 21 -557 -20 -33 -8 -70 -17 -82 -20 -35 -7 -172 -59 -238 -90
-69 -32 -255 -141 -270 -158 -5 -6 -30 -24 -54 -39 l-43 -29 7 81 c15 176 3
414 -27 526 -5 22 -12 50 -14 63 -19 101 -109 319 -177 425 -20 32 -37 59 -37
62 0 3 -6 13 -14 22 -133 168 -238 273 -360 364 -45 33 -90 67 -101 75 -11 9
-27 20 -35 24 -19 11 -12 18 25 24 17 2 32 5 35 6 3 1 10 3 15 4 94 17 361
120 447 173 21 13 40 23 44 23 10 0 156 100 209 144 45 36 156 145 211 208 50
55 156 224 199 315 66 139 71 151 93 223 27 85 40 120 47 120 3 0 4 -3 3 -7z"/>
<path d="M3925 4972 c-64 -11 -165 -48 -204 -75 -45 -30 -121 -102 -121 -113
0 -3 -9 -17 -20 -31 -21 -27 -57 -116 -66 -165 -8 -44 -8 -161 0 -186 4 -11 9
-29 11 -40 9 -50 65 -142 120 -198 78 -80 163 -123 275 -140 57 -8 54 -8 123
0 209 25 381 188 413 391 37 239 -92 455 -319 535 -51 18 -167 30 -212 22z"/>
<path d="M1355 4804 c-51 -12 -101 -28 -109 -36 -6 -4 -18 -8 -28 -8 -10 0
-18 -3 -18 -8 0 -4 -16 -16 -36 -27 -20 -10 -56 -42 -81 -69 -194 -216 -162
-532 73 -714 23 -18 47 -32 53 -32 7 0 22 -6 34 -14 34 -23 136 -42 207 -41
224 6 401 158 456 390 6 25 6 130 0 170 -6 38 -46 146 -60 162 -6 6 -24 30
-41 53 -40 55 -132 123 -203 150 -55 22 -199 35 -247 24z"/>
<path d="M4830 2605 c-97 -26 -186 -78 -248 -145 -23 -26 -82 -121 -80 -130 1
-3 -4 -16 -12 -29 -7 -14 -15 -41 -18 -60 -7 -45 -7 -170 0 -196 3 -11 9 -35
13 -53 4 -18 12 -35 16 -38 5 -3 9 -12 9 -20 0 -19 68 -110 112 -150 45 -40
111 -79 173 -100 53 -18 195 -24 250 -10 17 4 35 8 40 9 6 2 38 16 70 31 67
33 191 150 201 191 3 14 9 25 13 25 15 0 44 119 47 191 5 137 -47 269 -146
369 -19 19 -97 71 -130 87 -80 38 -225 51 -310 28z"/>
<path d="M745 2312 c-3 -3 -13 -7 -23 -8 -29 -5 -132 -48 -132 -56 0 -5 -6 -8
-13 -8 -24 0 -123 -108 -155 -168 -168 -316 38 -687 393 -708 218 -13 425 137
486 351 19 67 16 207 -5 270 -69 201 -239 325 -453 330 -51 1 -95 0 -98 -3z"/>
<path d="M2979 975 c-2 -2 -17 -5 -34 -7 -45 -6 -145 -40 -145 -50 0 -4 -5 -8
-11 -8 -15 0 -96 -65 -129 -104 -49 -57 -95 -155 -106 -224 -5 -30 -5 -139 -1
-162 26 -134 99 -246 207 -319 238 -158 566 -73 693 180 27 52 31 65 46 139
16 79 4 179 -32 265 -70 166 -228 277 -415 289 -39 3 -72 3 -73 1z"/>
</g>
</svg>
