<?xml version="1.0" encoding="UTF-8"?>
<svg width="270px" height="277px" viewBox="0 0 270 277" version="1.1" xmlns="http://www.w3.org/2000/svg" xmlns:xlink="http://www.w3.org/1999/xlink">
    <title>Teleki</title>
    <g id="telekilogo" stroke="none" stroke-width="1" fill="none" fill-rule="evenodd">
        <path d="M234.419,238.723 C234.948,240.392 235.354,242.085 235.302,243.85 C235.165,248.458 231.233,253.192 224.518,251.903 C220.771,251.184 217.364,249.634 214.084,247.786 C207.394,244.015 200.801,240.071 193.967,236.557 C184.514,231.697 174.886,227.271 164.562,224.541 C159.569,223.221 154.499,222.396 149.333,222.318 C139.997,222.177 131.378,224.764 123.291,229.311 C115.827,233.506 109.195,238.826 102.77,244.43 C97.024,249.444 91.612,254.815 86.033,260.006 C83.218,262.625 80.095,264.835 76.511,266.312 C74.468,267.153 72.351,267.629 70.141,267.158 C67.007,266.488 64.569,263.693 64.184,260.415 C64.216,259.23 64.219,258.054 64.518,256.882 C65.368,253.556 67.184,250.726 69.018,247.903 C73.822,240.506 79.032,233.409 84.848,226.773 C87.871,223.324 91.036,220.006 94.402,216.879 C96.7,214.745 99.12,212.757 101.469,210.686 C101.661,210.56 101.864,210.449 102.044,210.307 C106.645,206.698 111.508,203.49 116.697,200.786 C132.935,192.327 150.033,189.925 167.985,193.496 C175.582,195.007 182.836,197.539 189.866,200.751 C193.156,202.281 196.358,203.979 199.501,205.793 C208.015,210.71 215.897,216.498 223.097,223.179 C227.864,227.602 231.881,232.641 234.419,238.723 Z" fill="#873487"></path>
        <path d="M129.41,2.727 C129.951,2.719 130.188,3.176 130.5,3.48 C133.361,6.27 135.278,9.698 136.926,13.272 C140.224,20.427 143.321,27.676 146.881,34.71 C151.535,43.905 156.552,52.884 162.931,61.026 C168.317,67.899 174.527,73.837 182.325,77.951 C188.35,81.129 194.805,82.865 201.524,83.795 C207.191,84.58 212.887,84.69 218.577,84.522 C224.227,84.355 229.864,83.822 235.498,83.304 C241.604,82.742 247.652,81.57 253.811,81.562 C256.83,81.558 259.817,81.857 262.685,82.825 C265.714,83.847 267.994,85.684 268.796,88.969 C269.386,91.38 268.802,93.569 267.614,95.658 C267.471,95.673 267.36,95.729 267.316,95.877 C267.316,95.877 267.34,95.87 267.339,95.87 C267.203,95.957 267.042,96.02 266.937,96.135 C265.075,98.142 262.737,99.439 260.239,100.409 C250.837,104.06 241.218,107.009 231.338,109.067 C225.674,110.247 219.956,111.066 214.186,111.559 C212.514,111.702 210.822,111.517 209.171,111.903 C204.924,111.907 200.681,111.907 196.442,111.524 C189.053,110.856 181.842,109.383 174.856,106.871 C163.136,102.656 153.031,95.959 144.399,86.999 C138.46,80.834 133.474,73.974 129.317,66.5 C130.671,61.194 131.726,55.833 132.415,50.398 C133.17,44.441 133.498,38.459 133.601,32.46 C133.873,31.27 133.877,30.081 133.598,28.891 C133.534,23.516 133.255,18.153 132.775,12.8 C132.45,9.179 131.701,5.693 129.41,2.727 Z" fill="#F6B517"></path>
        <path d="M129.41,2.727 C131.701,5.693 132.451,9.18 132.775,12.798 C133.254,18.151 133.533,23.515 133.598,28.889 C133.599,30.078 133.6,31.268 133.601,32.458 C133.498,38.457 133.17,44.439 132.415,50.396 C131.726,55.831 130.671,61.192 129.317,66.498 C128.102,70.712 126.755,74.88 125.055,78.929 C120.705,89.284 114.631,98.463 106.437,106.185 C97.474,114.633 86.974,120.475 75.361,124.422 C71.175,125.845 66.891,126.895 62.598,127.922 C59.013,125.761 55.385,123.677 51.631,121.816 C40.125,116.113 28.029,112.065 15.589,108.998 C12.565,108.252 9.49,107.936 6.394,108.724 C5.625,108.92 4.997,109.462 4.193,109.539 C5.906,108.004 8.016,107.244 10.15,106.566 C13.905,105.371 17.801,104.886 21.689,104.36 C36.661,102.335 51.561,99.965 65.87,94.864 C72.835,92.382 79.417,89.159 85.276,84.578 C92.33,79.062 97.329,72 100.879,63.849 C104.374,55.825 106.457,47.387 108.195,38.848 C109.688,31.515 110.748,24.108 111.985,16.73 C112.62,12.945 113.727,9.287 115.61,5.906 C116.353,4.573 117.256,3.359 118.384,2.321 C121.344,-0.402 125.986,-0.4 128.917,2.328 C129.018,2.401 129.119,2.474 129.22,2.548 L129.203,2.532 C129.274,2.603 129.346,2.675 129.417,2.746 L129.41,2.727 Z" fill="#22BDEE"></path>
        <path d="M4.194,109.538 C4.998,109.461 5.626,108.919 6.395,108.723 C9.491,107.936 12.565,108.252 15.59,108.997 C28.03,112.064 40.126,116.113 51.632,121.815 C55.386,123.676 59.014,125.76 62.599,127.921 C67.332,131.004 71.882,134.325 76.08,138.117 C83.782,145.072 90.044,153.114 94.516,162.503 C100.441,174.945 102.61,188.115 102.099,201.809 C101.989,204.777 101.63,207.722 101.469,210.684 C99.119,212.755 96.699,214.744 94.402,216.877 C91.035,220.004 87.871,223.321 84.848,226.771 C79.032,233.407 73.823,240.503 69.018,247.901 C67.184,250.724 65.368,253.554 64.518,256.88 C64.219,258.052 64.216,259.229 64.184,260.413 C63.318,257.295 63.517,254.139 63.948,251 C64.846,244.465 66.556,238.083 67.687,231.59 C68.898,224.639 70.004,217.678 70.613,210.642 C71.026,205.872 71.283,201.1 71.121,196.314 C70.776,186.163 68.872,176.42 63.496,167.599 C59.504,161.049 54.166,155.755 48.146,151.098 C40.239,144.982 31.585,140.057 22.852,135.255 C18.751,133.001 14.489,131.039 10.54,128.512 C7.69,126.689 5.122,124.545 2.957,121.913 C-0.189,118.087 0.079,112.869 3.897,109.736 C4.052,109.745 4.177,109.708 4.204,109.528 L4.194,109.538 Z" fill="#68BC45"></path>
        <path d="M209.17,111.901 C210.82,111.515 212.513,111.7 214.185,111.557 C219.956,111.063 225.673,110.244 231.337,109.065 C241.217,107.007 250.836,104.058 260.238,100.407 C262.736,99.437 265.074,98.14 266.936,96.133 C267.041,96.019 267.203,95.955 267.338,95.868 C267.411,96.485 266.963,96.881 266.678,97.325 C264.384,100.885 261.345,103.771 258.209,106.557 C251.646,112.387 245.178,118.315 239.097,124.651 C231.84,132.214 225.051,140.147 219.976,149.397 C215.497,157.561 213.029,166.249 213.266,175.615 C213.438,182.39 214.857,188.947 216.886,195.386 C219.943,205.09 224.143,214.324 228.463,223.508 C230.452,227.737 232.709,231.855 233.925,236.411 C234.127,237.172 234.404,237.92 234.418,238.723 C231.88,232.641 227.863,227.602 223.095,223.177 C215.896,216.496 208.013,210.708 199.499,205.791 C196.356,203.977 193.154,202.279 189.864,200.749 C189.356,199.185 188.836,197.624 188.343,196.054 C184.683,184.394 183.178,172.51 184.724,160.325 C186.091,149.546 189.717,139.545 195.221,130.201 C199.143,123.546 203.901,117.529 209.17,111.901 Z" fill="#EB5031"></path>
        <path d="M147.862,228.166 C161.14,228.166 171.825,238.867 171.812,252.138 C171.798,264.692 161.911,276.007 147.886,276.045 C134.011,276.084 123.802,264.829 123.874,251.811 C123.947,238.804 134.687,228.166 147.862,228.166 Z" fill="#873487"></path>
        <path d="M219.56,169.907 C219.563,156.595 230.317,146.004 243.823,146.011 C256.833,146.019 267.487,156.881 267.481,170.134 C267.475,183.207 256.664,193.936 243.498,193.932 C230.241,193.928 219.557,183.205 219.56,169.907 Z" fill="#EB5031"></path>
        <path d="M38.408,161.042 C51.676,161.042 62.434,171.78 62.416,185.006 C62.397,198.166 51.624,209.001 38.448,208.944 C24.602,208.883 14.213,197.622 14.485,184.456 C14.748,171.728 25.116,161.041 38.408,161.042 Z" fill="#68BC45"></path>
        <path d="M195.809,76.075 C182.526,76.089 171.799,65.459 171.779,52.259 C171.758,38.792 182.395,28.101 196.07,28.221 C209.383,28.338 219.633,39.096 219.669,52.172 C219.704,65.33 208.959,76.061 195.809,76.075 Z" fill="#F6B516"></path>
        <path d="M92.162,60.425 C92.038,74.104 80.968,84.594 67.703,84.324 C54.786,84.061 44.168,73.572 44.275,60.212 C44.384,46.552 55.559,36.263 68.761,36.432 C81.5,36.595 92.187,47.441 92.162,60.425 Z" fill="#22BDEE"></path>
        <path d="M129.22,2.547 C129.119,2.473 129.018,2.4 128.917,2.327 C129.053,2.353 129.194,2.371 129.22,2.547 Z" fill="#F6B517"></path>
        <path d="M129.417,2.746 C129.345,2.675 129.274,2.603 129.203,2.532 C129.346,2.532 129.447,2.573 129.417,2.746 Z" fill="#F6B517"></path>
        <path d="M267.315,95.875 C267.359,95.727 267.47,95.671 267.613,95.656 C267.541,95.766 267.528,95.957 267.315,95.875 Z" fill="#EB5031"></path>
        <path d="M4.202,109.529 C4.175,109.709 4.051,109.746 3.895,109.737 C3.998,109.667 4.1,109.598 4.202,109.529 Z" fill="#22BDEE"></path>
        <path d="M133.601,32.458 C133.6,31.268 133.599,30.079 133.598,28.889 C133.877,30.079 133.873,31.268 133.601,32.458 Z" fill="#D4B85C"></path>
    </g>
</svg>