<svg viewBox="0 0 270 277" fill="none" xmlns="http://www.w3.org/2000/svg">
<path fill-rule="evenodd" clip-rule="evenodd" d="M147.862 228.166C151.011 228.159 154.13 228.775 157.04 229.978C159.95 231.18 162.594 232.946 164.82 235.174C167.045 237.402 168.809 240.047 170.009 242.958C171.209 245.87 171.821 248.989 171.812 252.138C171.798 264.692 161.911 276.007 147.886 276.045C134.011 276.084 123.802 264.829 123.874 251.811C123.947 238.804 134.687 228.166 147.862 228.166Z" fill="#17928E"/>
<path fill-rule="evenodd" clip-rule="evenodd" d="M219.56 169.907C219.563 156.595 230.317 146.004 243.823 146.011C256.833 146.019 267.487 156.881 267.481 170.134C267.475 183.207 256.664 193.936 243.498 193.932C230.241 193.928 219.557 183.205 219.56 169.907Z" fill="#17928E"/>
<path fill-rule="evenodd" clip-rule="evenodd" d="M38.408 161.042C51.676 161.042 62.434 171.78 62.416 185.006C62.397 198.166 51.624 209.001 38.448 208.944C24.602 208.883 14.213 197.622 14.485 184.456C14.748 171.728 25.116 161.041 38.408 161.042Z" fill="#17928E"/>
<path fill-rule="evenodd" clip-rule="evenodd" d="M195.809 76.075C182.526 76.089 171.799 65.459 171.779 52.259C171.758 38.792 182.395 28.101 196.07 28.221C209.383 28.338 219.633 39.096 219.669 52.172C219.704 65.33 208.959 76.061 195.809 76.075Z" fill="#17928E"/>
<path fill-rule="evenodd" clip-rule="evenodd" d="M92.162 60.425C92.038 74.104 80.968 84.594 67.703 84.324C54.786 84.061 44.168 73.572 44.275 60.212C44.384 46.552 55.559 36.263 68.761 36.432C81.5 36.595 92.187 47.441 92.162 60.425Z" fill="#17928E"/>
<path fill-rule="evenodd" clip-rule="evenodd" d="M234.419 238.723C234.948 240.392 235.354 242.085 235.302 243.85C235.165 248.458 231.233 253.192 224.518 251.903C220.771 251.184 217.364 249.634 214.084 247.786C207.394 244.015 200.801 240.071 193.967 236.557C184.514 231.697 174.886 227.271 164.562 224.541C159.569 223.221 154.499 222.396 149.333 222.318C139.997 222.177 131.378 224.764 123.291 229.311C115.827 233.506 109.195 238.826 102.77 244.43C97.024 249.444 91.612 254.815 86.033 260.006C83.218 262.625 80.095 264.835 76.511 266.312C74.468 267.153 72.351 267.629 70.141 267.158C67.007 266.488 64.569 263.693 64.184 260.415C64.216 259.23 64.219 258.054 64.518 256.882C65.368 253.556 67.184 250.726 69.018 247.903C73.822 240.506 79.032 233.409 84.848 226.773C87.871 223.324 91.036 220.006 94.402 216.879C96.7 214.745 99.12 212.757 101.469 210.686C101.661 210.56 101.864 210.449 102.044 210.307C106.645 206.698 111.508 203.49 116.697 200.786C132.935 192.327 150.033 189.925 167.985 193.496C175.582 195.007 182.836 197.539 189.866 200.751C193.156 202.281 196.358 203.979 199.501 205.793C208.015 210.71 215.897 216.498 223.097 223.179C227.864 227.602 231.881 232.641 234.419 238.723Z" fill="#116D6A"/>
<path fill-rule="evenodd" clip-rule="evenodd" d="M129.41 2.72703C129.951 2.71903 130.188 3.17603 130.5 3.48003C133.361 6.27003 135.278 9.69803 136.926 13.272C140.224 20.427 143.321 27.676 146.881 34.71C151.535 43.905 156.552 52.884 162.931 61.026C168.317 67.899 174.527 73.837 182.325 77.951C188.35 81.129 194.805 82.865 201.524 83.795C207.191 84.58 212.887 84.69 218.577 84.522C224.227 84.355 229.864 83.822 235.498 83.304C241.604 82.742 247.652 81.57 253.811 81.562C256.83 81.558 259.817 81.857 262.685 82.825C265.714 83.847 267.994 85.684 268.796 88.969C269.386 91.38 268.802 93.569 267.614 95.658C267.471 95.673 267.36 95.729 267.316 95.877L267.339 95.87C267.203 95.957 267.042 96.02 266.937 96.135C265.075 98.142 262.737 99.439 260.239 100.409C250.837 104.06 241.218 107.009 231.338 109.067C225.676 110.241 219.948 111.073 214.186 111.559C212.514 111.702 210.822 111.517 209.171 111.903C204.924 111.907 200.681 111.907 196.442 111.524C189.053 110.856 181.842 109.383 174.856 106.871C163.136 102.656 153.031 95.959 144.399 86.999C138.46 80.834 133.474 73.974 129.317 66.5C130.671 61.194 131.726 55.833 132.415 50.398C133.17 44.441 133.498 38.459 133.601 32.46C133.875 31.2861 133.874 30.0645 133.598 28.891C133.532 23.5187 133.257 18.151 132.775 12.8C132.45 9.17903 131.701 5.69303 129.41 2.72703Z" fill="#116D6A"/>
<path fill-rule="evenodd" clip-rule="evenodd" d="M129.41 2.72702C131.701 5.69302 132.451 9.18002 132.775 12.798C133.254 18.151 133.533 23.515 133.598 28.889L133.601 32.458C133.498 38.457 133.17 44.439 132.415 50.396C131.726 55.831 130.671 61.192 129.317 66.498C128.102 70.712 126.755 74.88 125.055 78.929C120.705 89.284 114.631 98.463 106.437 106.185C97.474 114.633 86.974 120.475 75.361 124.422C71.175 125.845 66.891 126.895 62.598 127.922C59.013 125.761 55.385 123.677 51.631 121.816C40.125 116.113 28.029 112.065 15.589 108.998C12.565 108.252 9.48999 107.936 6.39399 108.724C5.62499 108.92 4.99699 109.462 4.19299 109.539C5.90599 108.004 8.01599 107.244 10.15 106.566C13.905 105.371 17.801 104.886 21.689 104.36C36.661 102.335 51.561 99.965 65.87 94.864C72.835 92.382 79.417 89.159 85.276 84.578C92.33 79.062 97.329 72 100.879 63.849C104.374 55.825 106.457 47.387 108.195 38.848C109.688 31.515 110.748 24.108 111.985 16.73C112.62 12.945 113.727 9.28702 115.61 5.90602C116.353 4.57302 117.256 3.35902 118.384 2.32102C121.344 -0.401978 125.986 -0.399978 128.917 2.32802L129.22 2.54802L129.203 2.53202L129.417 2.74602L129.41 2.72702Z" fill="#116D6A"/>
<path fill-rule="evenodd" clip-rule="evenodd" d="M4.19399 109.538C4.99799 109.461 5.62599 108.919 6.39499 108.723C9.49099 107.936 12.565 108.252 15.59 108.997C28.03 112.064 40.126 116.113 51.632 121.815C55.386 123.676 59.014 125.76 62.599 127.921C67.332 131.004 71.882 134.325 76.08 138.117C83.782 145.072 90.044 153.114 94.516 162.503C100.441 174.945 102.61 188.115 102.099 201.809C101.989 204.777 101.63 207.722 101.469 210.684C99.119 212.755 96.699 214.744 94.402 216.877C91.035 220.004 87.871 223.321 84.848 226.771C79.032 233.407 73.823 240.503 69.018 247.901C67.184 250.724 65.368 253.554 64.518 256.88C64.219 258.052 64.216 259.229 64.184 260.413C63.318 257.295 63.517 254.139 63.948 251C64.846 244.465 66.556 238.083 67.687 231.59C68.898 224.639 70.004 217.678 70.613 210.642C71.026 205.872 71.283 201.1 71.121 196.314C70.776 186.163 68.872 176.42 63.496 167.599C59.504 161.049 54.166 155.755 48.146 151.098C40.239 144.982 31.585 140.057 22.852 135.255C18.751 133.001 14.489 131.039 10.54 128.512C7.68999 126.689 5.12199 124.545 2.95699 121.913C-0.189007 118.087 0.0789931 112.869 3.89699 109.736C4.05199 109.745 4.17699 109.708 4.20399 109.528L4.19399 109.538Z" fill="#116D6A"/>
<path fill-rule="evenodd" clip-rule="evenodd" d="M209.17 111.901C210.82 111.515 212.513 111.7 214.185 111.557C219.947 111.07 225.675 110.238 231.337 109.065C241.217 107.007 250.836 104.058 260.238 100.407C262.736 99.437 265.074 98.14 266.936 96.133C267.041 96.019 267.203 95.955 267.338 95.868C267.411 96.485 266.963 96.881 266.678 97.325C264.384 100.885 261.345 103.771 258.209 106.557C251.646 112.387 245.178 118.315 239.097 124.651C231.84 132.214 225.051 140.147 219.976 149.397C215.497 157.561 213.029 166.249 213.266 175.615C213.438 182.39 214.857 188.947 216.886 195.386C219.943 205.09 224.143 214.324 228.463 223.508C230.452 227.737 232.709 231.855 233.925 236.411C234.127 237.172 234.404 237.92 234.418 238.723C231.88 232.641 227.863 227.602 223.095 223.177C215.896 216.496 208.013 210.708 199.499 205.791C196.356 203.977 193.154 202.279 189.864 200.749C189.356 199.185 188.836 197.624 188.343 196.054C184.683 184.394 183.178 172.51 184.724 160.325C186.091 149.546 189.717 139.545 195.221 130.201C199.143 123.546 203.901 117.529 209.17 111.901Z" fill="#116D6A"/>
<path fill-rule="evenodd" clip-rule="evenodd" d="M129.22 2.54703L128.917 2.32703C129.053 2.35303 129.194 2.37103 129.22 2.54703Z" fill="#116D6A"/>
<path fill-rule="evenodd" clip-rule="evenodd" d="M129.417 2.74604L129.203 2.53204C129.346 2.53204 129.447 2.57304 129.417 2.74604Z" fill="#116D6A"/>
<path fill-rule="evenodd" clip-rule="evenodd" d="M267.315 95.875C267.359 95.727 267.47 95.671 267.613 95.656C267.541 95.766 267.528 95.957 267.315 95.875Z" fill="#116D6A"/>
<path fill-rule="evenodd" clip-rule="evenodd" d="M4.20202 109.529C4.17502 109.709 4.05102 109.746 3.89502 109.737L4.20202 109.529Z" fill="#116D6A"/>
<path fill-rule="evenodd" clip-rule="evenodd" d="M133.601 32.458L133.598 28.889C133.874 30.0625 133.875 31.2841 133.601 32.458Z" fill="#116D6A"/>
</svg>
